<?xml version="1.0" encoding="UTF-8"?>
<svg width="512" height="512" viewBox="0 0 512 512" fill="none" xmlns="http://www.w3.org/2000/svg">
  <!-- Sweaty Logo - Rounded corners for app icons -->

  <!-- Dark background with rounded corners -->
  <rect width="512" height="512" rx="102" fill="#0f0f0f"/>

  <!-- Cyan layer (offset left, behind) -->
  <path
    d="M256 72C256 72 160 184 160 280C160 332.944 203.056 376 256 376C308.944 376 352 332.944 352 280C352 184 256 72 256 72Z"
    fill="#00ffff"
    fill-opacity="0.6"
    transform="translate(-5, 0)"
  />

  <!-- Green layer (offset right, behind) -->
  <path
    d="M256 72C256 72 160 184 160 280C160 332.944 203.056 376 256 376C308.944 376 352 332.944 352 280C352 184 256 72 256 72Z"
    fill="#22c55e"
    fill-opacity="0.6"
    transform="translate(5, 0)"
  />

  <!-- Main white layer (front) -->
  <path
    d="M256 72C256 72 160 184 160 280C160 332.944 203.056 376 256 376C308.944 376 352 332.944 352 280C352 184 256 72 256 72Z"
    fill="#ffffff"
  />
</svg>
