<?xml version="1.0" encoding="UTF-8"?>
<svg width="512" height="512" viewBox="0 0 512 512" fill="none" xmlns="http://www.w3.org/2000/svg">
  <!-- Sweaty Logo - Circle for profile pictures -->

  <!-- Dark circular background -->
  <circle cx="256" cy="256" r="256" fill="#0f0f0f"/>

  <!-- Cyan layer (offset left, behind) -->
  <path
    d="M256 80C256 80 168 184 168 272C168 320.601 207.399 360 256 360C304.601 360 344 320.601 344 272C344 184 256 80 256 80Z"
    fill="#00ffff"
    fill-opacity="0.6"
    transform="translate(-5, 0)"
  />

  <!-- Green layer (offset right, behind) -->
  <path
    d="M256 80C256 80 168 184 168 272C168 320.601 207.399 360 256 360C304.601 360 344 320.601 344 272C344 184 256 80 256 80Z"
    fill="#22c55e"
    fill-opacity="0.6"
    transform="translate(5, 0)"
  />

  <!-- Main white layer (front) -->
  <path
    d="M256 80C256 80 168 184 168 272C168 320.601 207.399 360 256 360C304.601 360 344 320.601 344 272C344 184 256 80 256 80Z"
    fill="#ffffff"
  />
</svg>
